<?xml version="1.0" encoding="UTF-8"?>
<svg xmlns="http://www.w3.org/2000/svg" xmlns:xlink="http://www.w3.org/1999/xlink" viewBox="0 0 1920 2719">
  <defs>
    <style>
      .cls-1, .cls-2 {
        fill: none;
      }

      .cls-3 {
        fill: #231e1a;
      }

      .cls-4 {
        fill: #f6f9fb;
      }

      .cls-5 {
        fill: url(#radial-gradient-5);
      }

      .cls-6 {
        fill: url(#radial-gradient-4);
      }

      .cls-7 {
        fill: url(#radial-gradient-3);
      }

      .cls-8 {
        fill: url(#radial-gradient-2);
      }

      .cls-2 {
        stroke: #fff;
        stroke-miterlimit: 10;
        stroke-width: 5.93px;
      }

      .cls-9 {
        fill: #f9a426;
      }

      .cls-10 {
        fill: #fff;
        opacity: .1;
      }

      .cls-11 {
        isolation: isolate;
      }

      .cls-12 {
        fill: url(#radial-gradient);
        opacity: .5;
      }

      .cls-13 {
        fill: #060606;
      }

      .cls-14 {
        fill: #26100a;
      }

      .cls-15 {
        fill: url(#linear-gradient);
        mix-blend-mode: multiply;
      }

      .cls-16 {
        fill: #0e0809;
      }

      .cls-17 {
        clip-path: url(#clippath);
      }
    </style>
    <linearGradient id="linear-gradient" x1="-639.22" y1="1728" x2="1280.78" y2="1728" gradientTransform="translate(654 -654)" gradientUnits="userSpaceOnUse">
      <stop offset="0" stop-color="#fff"/>
      <stop offset="0" stop-color="#f5f5f5"/>
      <stop offset=".05" stop-color="#c7c7c7"/>
      <stop offset=".09" stop-color="#9c9c9c"/>
      <stop offset=".14" stop-color="#777"/>
      <stop offset=".2" stop-color="#565656"/>
      <stop offset=".25" stop-color="#3b3b3b"/>
      <stop offset=".32" stop-color="#252525"/>
      <stop offset=".4" stop-color="#141414"/>
      <stop offset=".49" stop-color="#080808"/>
      <stop offset=".63" stop-color="#010101"/>
      <stop offset="1" stop-color="#000"/>
    </linearGradient>
    <clipPath id="clippath">
      <rect id="BG" class="cls-1" x="3" y="1440.74" width="1917" height="1278"/>
    </clipPath>
    <radialGradient id="radial-gradient" cx="974.45" cy="2482.68" fx="974.45" fy="2482.68" r="1236.53" gradientUnits="userSpaceOnUse">
      <stop offset="0" stop-color="#fddd61"/>
      <stop offset=".07" stop-color="#fcdc69" stop-opacity=".91"/>
      <stop offset=".33" stop-color="#fcdc89" stop-opacity=".59"/>
      <stop offset=".57" stop-color="#fbdca2" stop-opacity=".34"/>
      <stop offset=".76" stop-color="#fbdcb4" stop-opacity=".16"/>
      <stop offset=".91" stop-color="#fbdcbf" stop-opacity=".04"/>
      <stop offset="1" stop-color="#fbdcc4" stop-opacity="0"/>
    </radialGradient>
    <radialGradient id="radial-gradient-2" cx="-305.52" cy="2492.62" fx="-305.52" fy="2492.62" r="23.81" gradientTransform="translate(-205.19 218.91) rotate(-14.9)" gradientUnits="userSpaceOnUse">
      <stop offset="0" stop-color="#231e1a"/>
      <stop offset="1" stop-color="#0e0809"/>
    </radialGradient>
    <radialGradient id="radial-gradient-3" cx="133.98" cy="2695.39" fx="133.98" fy="2695.39" r="48.48" gradientUnits="userSpaceOnUse">
      <stop offset="0" stop-color="#3a3a3a"/>
      <stop offset="1" stop-color="#0e0809"/>
    </radialGradient>
    <radialGradient id="radial-gradient-4" cx="2050.88" cy="2469.12" fx="2050.88" fy="2469.12" r="115.69" gradientTransform="translate(284.84 -288.34) rotate(15.35)" xlink:href="#radial-gradient-2"/>
    <radialGradient id="radial-gradient-5" cx="1410.56" cy="2553.72" fx="1410.56" fy="2553.72" r="75.7" gradientUnits="userSpaceOnUse">
      <stop offset="0" stop-color="#302f2f"/>
      <stop offset="1" stop-color="#0e0809"/>
    </radialGradient>
  </defs>
  <g class="cls-11">
    <g id="Layer_1">
      <image width="1792" height="1024" transform="scale(1.07)" xlink:href="../background_desktop.jpg"/>
      <rect class="cls-15" x="0" y="114" width="1920" height="1920" transform="translate(2034 114) rotate(90)"/>
      <rect x="0" y="1949" width="1920" height="774"/>
      <g class="cls-17">
        <g>
          <path class="cls-12" d="M1396.38,2441.43c11.43-.05,29.31.37,51.07,3.12,21.16,2.67,34.12,6.05,61.34,11.82,0,0,31.94,6.78,67.73,13.1,49.51,8.75,86.81,10.29,105.75,11.5,123.33,7.9,241.28,15.45,287.55,81.47,30.44,43.44,29.12,111.13,6.71,154.32-57.48,110.78-291,132.15-580.16,56.86H234.28c-165.52,4.05-287.08-68.34-294.23-134.18-7.55-69.51,107.44-177.08,296.5-194.26,157.64,71.49,245.95,58.74,298.19,30.67,30.98-16.65,64.05-46.36,122.69-53.28,35.76-4.22,74.19,2.37,123.57,21.38,105.12,40.46,282.15-44.38,309.86-126.3,27.7-81.9,106.71,104,160.42,117.8,33.1,8.51,99.24,7.77,145.1,5.97Z"/>
          <path class="cls-16" d="M1320.57,2507.99c-115.41-65.14-128.81-107.89-184.52-107.89-23.58,0-127.64,50.27-203.94,84.6-76.3,34.33-262.21,0-287.18,0s-51.33,34.33-79.08,50.27c-27.75,15.94-209.49,22.07-209.49,22.07-79.98,28.32-159.96,56.65-239.94,84.97-153.98,22.34-283.76,80.41-293.94,153.36-12.07,86.49,141.46,212.07,400.23,265.12,553.65,137.99,957.55,67.41,1192.99-1.9,73.97-21.77,522.91-158.69,510.36-296.46-11.64-127.83-414.28-186.56-488.2-196.81-28.48-11.88-69.73-30.49-117.3-57.33Z"/>
          <g>
            <path class="cls-16" d="M347.78,2670.06s-56.48-34.75-52.42-322.2c0,0,98.01-240.2,66.24-403.7l-31.77-163.5,17.96-207.44s161.76-155.41,166.84-304.07c-15.19-9.46-6.41,24.33-6.41,24.33,0,0-35.14,150.01-173.66,267.58-18.24,110.14-26.35,229.42-26.35,229.42,0,0,56.53,169.7,23.2,299.89-33.34,130.19-79.96,217.36-79.96,217.36l-72.3,405.84,168.64-43.5Z"/>
            <polygon class="cls-16" points="346.88 1915.16 408.88 1818.72 455.73 1782.69 455.73 1786.29 412.43 1821.37 352.34 1923.73 346.88 1915.16"/>
            <path class="cls-16" d="M386.92,1859.72s32.66,4.84,36.38-.56,4.96-33.22,4.96-33.22h.79s.34,37.16-5.97,38.74c-6.31,1.58-38.85-1.35-38.85-1.35l2.7-3.6Z"/>
            <path class="cls-16" d="M325.49,1622.01s111.32-17.71,136.54-60.06c25.23-42.34,60.14-4.96,60.14-4.96l38.97-15.24-1.91-1.65-37.67,13.51s-22.64-21.96-40.37-13.51c-17.74,8.45-34.12,32.27-34.12,32.27,0,0-44.94,26.07-53.94,26.75-9.01.68-50.45,11.26-50.45,11.26l-17.17,11.63Z"/>
            <path class="cls-16" d="M396.27,1598.38s12.61,20.27,29.51,20.27,38.68-16.05,38.68-16.05l2.37-11.99h-1.18s-2.87,11.94-3.77,12.39-28.72,14.19-34.63,13.01-21.85-6.98-26.07-16.16c-3.83.68-4.9-1.47-4.9-1.47Z"/>
            <path class="cls-16" d="M378.47,1536.05s38.74-22.52,63.07-22.07,43.7-7.88,37.61-27.25,11.36-27.76,11.36-27.76l-1.6-.92s-17.87,9.99-13.48,27.22c4.39,17.23-13.06,22.52-13.06,22.52l-28.94,2.25-47.98,13.18-6.98,12.84Z"/>
            <path class="cls-16" d="M475.65,1494.68s10.71-12.8,18.03-11.23,12.39-3.72,12.39-3.72l1.13.9s-4.39,4.14-11.53,4.18-10.64,2.49-11.91,4.35-5.91,6.46-5.91,6.46l-2.2-.95Z"/>
            <path class="cls-16" d="M325.49,1655.65s-45.68-118.25-3.11-193.93c42.57-75.68,37.16-169.6,37.16-169.6l-5.74,5.07s-9.46,96.29-16.22,110.82c-6.76,14.53-40.21,86.68-40.21,86.68,0,0,.34,53.19-1.69,73.13-2.03,19.93,6.42,39.19,5.74,41.22s12.84,53.04,12.84,53.04l7.43,15.2,3.78-21.62Z"/>
            <path class="cls-16" d="M317.21,1465.09s74.59-5.29,81.8-29.17c7.21-23.88,15.77-75.68,15.77-75.68l-5.18,2.7s-3.83,42.57-9.69,55.41c-5.86,12.84-8.11,25.45-20.95,28.83-12.84,3.38-63.52,6.98-63.52,7.66s1.77,10.25,1.77,10.25Z"/>
            <path class="cls-16" d="M475.65,1393.92s46.75-51.35,109.37-9.46c62.62,41.89,78.83-3.49,78.83-3.49l-2.7-2.81s-1.35,11.71-9.91,15.77c-8.56,4.05-24.55,9.69-44.37-.45s-38.29-24.1-38.97-24.55-30.63-4.96-30.63-4.96c0,0-42.12,1.31-55.41,19.13s-6.21,10.83-6.21,10.83Z"/>
            <path class="cls-16" d="M604.53,1395.52s17.54,10.12,4.7,26.34c-12.84,16.22,4.7,22.3,4.7,22.3v-1.13s-7.51-4.84-7.29-8.9c.23-4.05-1.64-5.29,6.84-15.99,8.48-10.7-3.35-21.29-3.35-21.29l-5.6-1.34Z"/>
            <path class="cls-16" d="M325.09,2188.79s-35.81-101.61-30.41-121.08c5.41-19.47,73.65-45.82,93.92-64.74,20.27-18.92,67.12,45.27,67.12,45.27l15.65-11.49s27.7,1.52,29.22-4.22,3.55,0,3.55,0c0,0-5.24,7.43-16.56,6.76-11.32-.68-17.06-.17-17.06-.17,0,0-12.5,16.56-15.88,15.71-3.38-.84-20.1-32.1-27.87-33.95-7.77-1.86-20.44-19.09-33.62-12.16-13.18,6.93-81.14,50.34-86.77,58.67-5.63,8.33,1.72,47.07,7.21,57.21,5.49,10.14,11.94,21.85,12.16,23.42s-.68,40.77-.68,40.77Z"/>
            <path class="cls-16" d="M319.69,2227.97s63.97-2.46,71.63-57.42c7.66-54.96,36.04-54.51,36.04-54.51,0,0,21.4-12.16,21.85-14.19s73.43,29.2,73.43,29.2v2.33s-65.77-29.73-71.18-27.03c-5.41,2.7-20.5,18.47-22.75,17.12s-13.4,2.31-17.62,7.88c-8.3,10.96-10.08,22.75-10.08,22.75,0,0,58.34,1.58,64.19-7.66s14.64-12.16,14.64-12.16l3.83,1.13s-11.94,8.78-13.51,13.06c-1.58,4.28-28.38,9.69-44.82,10.36-16.44.68-24.55,1.35-24.55,1.35,0,0-.23,27.7-13.74,46.85-13.51,19.15-18.47,25.45-18.47,25.45,0,0-43.92,6.98-46.62,11.94-2.7,4.96-2.25-16.46-2.25-16.46Z"/>
            <path class="cls-16" d="M421.14,2121.22s-12.6-17.91-5.17-30.41c7.43-12.5,20.27-24.33,20.27-24.33l1.69,2.03s-21.62,19.93-21.06,28.61,5.97,21.29,5.97,21.29l-1.7,2.82Z"/>
            <path class="cls-16" d="M409.43,2009.38s26.32,9.85,31.06-4.19,31.36-18.43,31.36-18.43l8.32,5.47-3.46,1.52s-3.07-4.18-4.74-4.18-23.16,5.57-26.23,12.02c-3.07,6.45-7.17,12.37-9.09,13.1-1.92.74-18.15,2.07-18.35,1.48s-8.87-6.79-8.87-6.79Z"/>
            <path class="cls-16" d="M329.15,1426.19s-38.74-45.33-38.74-52.09,16.22-69.37,16.22-69.37h3.15s-15.38,61.72-14.39,67.46,15.86,17.23,22.95,26.69,16.56,27.32,16.56,27.32h-5.74Z"/>
            <path class="cls-16" d="M240.63,1363.97s31.08,49.44,40.88,49.44,19.76-10.47,22.97-5.41c3.21,5.07,11.9,6.93,13.97,5.41s3.26,1.35,3.26,1.35l1.52,2.53s-3.72,3.04-7.26,1.35c-3.55-1.69-12.5-7.77-14.19-7.26s-18.3,6.36-21.51,6.87-29.68-33.9-29.68-33.9l-9.97-20.38Z"/>
          </g>
          <g>
            <path class="cls-9" d="M1537.48,2639.9s35-7.67,38.36,1.82c-6.38,9.49-11.2,12.76-38.36-1.82Z"/>
            <path class="cls-9" d="M1613.09,2613.13s-32.03,16.05-28.67,25.55c10.93,3.36,16.73,2.88,28.67-25.55Z"/>
          </g>
          <g>
            <path class="cls-9" d="M712.53,2560.71s12.58-2.32,13.67,1.1c-2.39,3.31-4.15,4.42-13.67-1.1Z"/>
            <path class="cls-9" d="M739.84,2552.05s-11.62,5.35-10.53,8.78c3.86,1.33,5.94,1.22,10.53-8.78Z"/>
          </g>
          <g>
            <path class="cls-9" d="M397.09,2618.04s18.62-8.13,21.54-3.22c-2.5,5.98-4.82,8.34-21.54,3.22Z"/>
            <path class="cls-9" d="M436.19,2594.8s-16.04,12.47-13.13,17.38c6.45.66,9.62-.25,13.13-17.38Z"/>
          </g>
          <g>
            <path class="cls-9" d="M1076.69,2511.5s19.59,11.27,16.68,19.16c-7.36,3.33-11.1,3.25-16.68-19.16Z"/>
            <path class="cls-9" d="M1123.79,2529.08s-22.16-4.31-25.07,3.59c3.42,7.35,6.3,9.74,25.07-3.59Z"/>
          </g>
          <g>
            <path class="cls-9" d="M1236,2592.83s35.76,20.57,30.44,34.98c-13.44,6.07-20.25,5.94-30.44-34.98Z"/>
            <path class="cls-9" d="M1321.96,2624.9s-40.44-7.86-45.76,6.55c6.25,13.42,11.5,17.79,45.76-6.55Z"/>
          </g>
          <path class="cls-3" d="M882.52,2528s18.24,97.98,189.88,56.08c171.63-41.89,66.91,95.95,21.29,117.57s-229.73-87.63-322.8-27.08c-60.68,68.97,168.42,384.76,168.42,384.76h-165.25s-110.01-368.75-19.96-402.28c81.65-30.41,150.21-9.18,281.45,25,62.92,16.38,132.45-60.48,114.88-82.78-17.57-22.3-123.99,19.93-198.32,5.74-74.33-14.19-84.69-68.92-80.18-77.03,6.98,3.15,10.59,0,10.59,0Z"/>
          <g>
            <g>
              <path class="cls-16" d="M1232.21,2418.49c.65,1.29-2.23,61.23-3.66,61.53h5.79c-2.13.15,5.94-61.51,7.51-63.06,1.44-1.41-10.66-.47-9.65,1.52Z"/>
              <path class="cls-16" d="M1215.76,2438.75c-.2-2.09,40.93-3.02,41.62-3.53,2.35-1.75-1-14.37-5.23-9.29-5.49,6.59-33.9,8.72-35.32,7.34-1.62-1.58-2.94,5.81-1.07,5.48Z"/>
            </g>
            <g>
              <path class="cls-16" d="M1339.66,2457.49c-1.58,1.91-4.05,68.25-4.05,68.25h6.42s10.02-68.47,8.33-69.94-9.12-.23-10.7,1.69Z"/>
              <path class="cls-16" d="M1321.42,2479.95s46.96-7.94,47.47-11.15c.51-3.21-.51-4.39-7.77-3.38-7.26,1.01-37.67,6.08-38.52,8.45s-3.26,6.44-1.18,6.08Z"/>
            </g>
            <g>
              <path class="cls-16" d="M1302.25,2427.41c-.45,1.01,1.52,48.21,2.49,48.45h-3.94c1.45.12-4.05-48.43-5.12-49.65-.98-1.11,7.26-.37,6.57,1.2Z"/>
              <path class="cls-16" d="M1313.46,2443.36c.14-1.64-27.88-2.38-28.35-2.78-1.6-1.38.68-11.32,3.56-7.32,3.74,5.19,23.09,6.86,24.06,5.78,1.11-1.24,2.01,4.57.73,4.32Z"/>
              <path class="cls-16" d="M1304.35,2504.47c.66-1.28,14.32-50.86,4.37-53.7s-26.51-7.06-22.86,2.53c3.65,9.59-2.71,48.18-2.71,48.18l21.19,2.99Z"/>
            </g>
          </g>
          <g>
            <g>
              <path class="cls-16" d="M441.75,2520.2c-.96,1.17-2.47,41.62-2.47,41.62h3.91s6.11-41.76,5.08-42.65-5.56-.14-6.52,1.03Z"/>
              <path class="cls-16" d="M430.63,2533.9s27.56-3.23,27.87-5.19c.31-1.96-.31-2.68-4.74-2.06-4.43.62-21.9,2.09-22.41,3.54s-1.99,3.93-.72,3.71Z"/>
            </g>
            <g>
              <path class="cls-16" d="M470.37,2504.52c.67,1.39,1.74,49.6,1.74,49.6h-2.75s-4.29-49.77-3.57-50.83,3.9-.16,4.58,1.23Z"/>
              <path class="cls-16" d="M478.18,2520.85s-19.34-3.85-19.56-6.18.22-3.19,3.33-2.46c3.11.74,15.37,2.5,15.73,4.22s1.4,4.68.51,4.42Z"/>
            </g>
            <g>
              <path class="cls-16" d="M315.03,2523.96c-.75,2.36,21.65,64.85,21.65,64.85l5.96-2.39s-16.2-67.28-18.31-68.01-8.55,3.19-9.3,5.55Z"/>
              <path class="cls-16" d="M306.46,2551.61s39.98-21.75,39.25-24.91c-.73-3.17-2.11-3.89-8.47-.24-6.36,3.65-32.05,16.56-31.95,19.07s-.63,7.19,1.17,6.08Z"/>
            </g>
            <g>
              <path class="cls-16" d="M397.48,2505.12c-.33,1.01,1.12,48.21,1.84,48.45h-2.91c1.07.12-2.99-48.43-3.78-49.64-.72-1.11,5.36-.37,4.85,1.2Z"/>
              <path class="cls-16" d="M406.93,2516.93c-.4-1.6-20.36,3.92-20.81,3.63-1.54-.96-2.91-10.95.32-7.77,4.19,4.12,18.33,1.43,18.69.18.41-1.43,2.78,3.92,1.81,3.96Z"/>
              <path class="cls-16" d="M375.52,2571.2s-.06-48.13,22.65-42.72c22.7,5.41,21.16,38.89,21.16,38.89l-43.81,3.84Z"/>
            </g>
          </g>
          <g>
            <g>
              <path class="cls-16" d="M1808.6,2592.75c-1.78,1.06-22.38,52.43-22.38,52.43l5.04,1.81s27.13-50.92,26.21-52.55-7.1-2.74-8.87-1.68Z"/>
              <path class="cls-16" d="M1787.96,2605.25s36.97,8.56,38.27,6.18.84-3.59-5.15-4.84c-5.99-1.25-29.15-7.4-30.48-5.79s-4.37,4.14-2.64,4.44Z"/>
            </g>
            <g>
              <path class="cls-16" d="M1758.58,2552.92c-.89,1.15-20.79,62.56-19.98,63.2l-3.75-1.34c1.32.65,18.49-63.71,18.03-65.64-.42-1.77,7.07,2,5.69,3.78Z"/>
              <path class="cls-16" d="M1765.3,2572.48c.23-2.24-28.01-4.35-28.46-4.92-1.54-1.95,1.3-15.43,3.99-9.85,3.49,7.24,22.94,10.29,23.97,8.85,1.18-1.65,1.78,6.32.5,5.93Z"/>
              <path class="cls-16" d="M1699.84,2627.84s22.13-61.97,48.85-44.54c26.73,17.43,9.3,59.81,9.3,59.81l-58.15-15.27Z"/>
            </g>
          </g>
          <g>
            <g>
              <path class="cls-13" d="M1105.05,1831.92s15.47,14.15,4.31,25.66c6.93,12.18-2.74,20.9-2.74,20.9,0,0,19.65,1.18,2.97,18.36,6.29,6.89-2.33,11.85-2.33,11.85,0,0,3.05,4.43,9.55-1.01,6.5-5.44,13.04,5.85,13.04,5.85,0,0,13.79-1.67,7.27,6.85,7.44-4.71,23.13-4.63,21.09,7.63,5.11-1.88,20.34,1.55,17.94,11.54,0,0,9.24-11.76-10.54-34.86l-17.52,3.03s1.13-6.67-3.95-7.78l-5.08-1.1s5.77-4.99.39-11.31c-5.39-6.32-10.52-.47-10.52-.47,0,0,8.76-10.85,2.09-15.48,8.58-11.82,5.66-15.95,1.48-19.01-4.18-3.05-27.47-20.65-27.47-20.65Z"/>
              <path class="cls-13" d="M1138.32,1891.5s9.18.94,8.94,1.88-8.08,2.14-8.08,2.14l-.86-4.03Z"/>
              <path class="cls-13" d="M1133.74,1886.73s3.5-8.07,4.69-7.61-.57,9.08-.57,9.08l-4.12-1.47Z"/>
            </g>
            <g>
              <path class="cls-13" d="M1126.07,1681.3s10.93,3.36,8.12,11.64c6.26,4.39,3.53,10.94,3.53,10.94,0,0,9.96-4.01,5.75,8.36,4.71,1.93,1.62,6.38,1.62,6.38,0,0,2.54,1.47,4.47-2.73,1.94-4.2,7.79-.16,7.79-.16,0,0,6.41-4.04,5.18,1.68,2.57-4.06,10.32-7.68,12.18-1.17,2.08-2.12,10.38-3.99,11.53,1.5,0,0,1.81-7.95-13.33-14.72l-7.93,5.58s-1-3.55-3.76-2.91l-2.76.64s1.68-3.81-2.45-5.66c-4.13-1.86-5.29,2.23-5.29,2.23,0,0,1.78-7.39-2.59-8.12,1.47-7.83-.93-9.18-3.71-9.71s-18.36-3.76-18.36-3.76Z"/>
              <path class="cls-13" d="M1156.37,1702.89s4.75-1.68,4.85-1.16-3.48,2.94-3.48,2.94l-1.36-1.78Z"/>
              <path class="cls-13" d="M1153,1701.61s-.16-4.8.54-4.84,1.84,4.61,1.84,4.61l-2.37.24Z"/>
            </g>
            <g>
              <path class="cls-13" d="M537.38,1769.2s3.93-9.42,9-9.76,25.17,2.59,25.17,2.59c0,0-15.54,11.94-24.55,11.94-1.8,8.56-4.76,3.72-5.94,3.46s2.45,8.36-2.62,7.86-3.46,5.24-3.46,5.24c0,0-3.04-2.79-3.04-4.81s-5.41-7.01-6-5.74-3.29.42-3.13-2.37c.17-2.79-13.77-3.72-19.6-2.03,11.15-10.9,21.45-14.61,22.64-13.43s3.46,7.22,3.46,7.22c.52-.64,1.03-1.24,1.55-1.74,2.1-2.04,4.25-2.59,6.51,1.57Z"/>
              <polygon class="cls-13" points="530.75 1768.23 529.95 1765.91 532.02 1767.51 530.75 1768.23"/>
              <polygon class="cls-13" points="534.81 1767.07 536.83 1765.32 535.82 1768.23 534.81 1767.07"/>
            </g>
            <g>
              <path class="cls-13" d="M495.8,1924.16s.32-10.2,4.93-12.32c4.62-2.12,24.44-6.54,24.44-6.54,0,0-10.28,16.69-18.69,19.89,1.36,8.64-3.12,5.17-4.32,5.35s5.27,6.94.35,8.27-1.37,6.13-1.37,6.13c0,0-3.83-1.52-4.56-3.42s-7.55-4.63-7.65-3.23-2.93,1.57-3.76-1.1-14.19,1.43-19.03,5.08c6.54-14.15,14.85-21.29,16.37-20.61s5.81,5.52,5.81,5.52c.25-.78.53-1.53.83-2.18,1.24-2.66,3.05-3.93,6.65-.85Z"/>
              <polygon class="cls-13" points="489.26 1925.61 487.68 1923.73 490.19 1924.49 489.26 1925.61"/>
              <polygon class="cls-13" points="492.63 1923.08 493.9 1920.72 493.99 1923.81 492.63 1923.08"/>
            </g>
            <g>
              <path class="cls-13" d="M625.38,1783.1s17.68-6.31,18.92,2.03c1.24,8.33,3.6,8.67,3.6,8.67,0,0,1.35-2.2,5.35-1.24,4,.96,3.49,3.66,3.49,3.66,0,0,6.59-5.91,11.04-3.83,4.45,2.08,11.88,8.28,11.88,8.28,0,0-11.83-5.46-13.18.96-3.72-2.2-6.53,1.41-6.14,3.55-2.98-4.62-9.52-1.8-10.19,2.03-2.59.84-2.76-.45-2.65-2.65s.11-7.21-5.46-5.8c-.28-6.19-3.32-10.19-6.36-8.16-.68-3.38,1.35-6.03-10.3-7.49Z"/>
              <path class="cls-13" d="M649.62,1794.73s-.28-4.17.29-4.25,1.8,3.46,1.8,3.46l-2.09.79Z"/>
              <path class="cls-13" d="M654.18,1793.71s2.84-1.83,3.1-1.55-2,2.76-2,2.76l-1.1-1.21Z"/>
            </g>
            <g>
              <path class="cls-13" d="M567.9,1695.41s8.78-11.49,12.5-9.46,6.87,4.17,7.21,4.05.82-1.7,2.97-1.07c-.72-2.96,2.32-5.22,4.77-3.22,2.2-1.51,3.25-1.93,3.63-1.93s-1.35-9.04,7.04-8.98,11.77.28,11.77.28c0,0-7.1-.45-7.94,4.67-.68,5.46-.51,5.35-.51,5.35,0,0-4.84-1.24-3.83,2.48-2.48-.11-5.57,4.28-5.07,6.08-1.07.9,2.14,5.41-.17,5.52-2.31.11-6.19-1.07-6.25-3.1,0,0-7.26-4.79-8.78.51-1.97-3.89-4-5.29-17.34-1.18Z"/>
              <path class="cls-13" d="M593.54,1686.52s-.36-3.25.27-3.48.91,3.23.91,3.23l-1.18.25Z"/>
              <path class="cls-13" d="M591.09,1688.59c-.17-.06-4.01-1.9-3.72-2.28s4.6.46,4.6.46l-.89,1.82Z"/>
            </g>
            <g>
              <path class="cls-13" d="M1182.27,1808.54s12.07-7.97,14.91-4.83c2.85,3.13,5.12,6.19,5.48,6.2s1.33-1.34,3.16-.04c.29-3.03,3.91-4.17,5.57-1.48,2.57-.7,3.7-.75,4.06-.63s1.69-8.98,9.6-6.17c7.91,2.81,11.02,4.13,11.02,4.13,0,0-6.55-2.75-9.03,1.81-2.43,4.94-2.23,4.89-2.23,4.89,0,0-4.17-2.76-4.43,1.08-2.3-.92-6.67,2.21-6.78,4.08-1.31.5.25,5.81-1.97,5.16-2.22-.65-5.5-3.04-4.89-4.98,0,0-5.29-6.91-8.46-2.4-.59-4.32-2.04-6.31-15.99-6.81Z"/>
              <path class="cls-13" d="M1209.4,1808.57s.73-3.19,1.4-3.2-.2,3.35-.2,3.35l-1.2-.15Z"/>
              <path class="cls-13" d="M1206.4,1809.72c-.14-.12-3.17-3.11-2.76-3.37s4.2,1.95,4.2,1.95l-1.43,1.42Z"/>
            </g>
          </g>
          <g>
            <path class="cls-9" d="M128.23,2684.96s-8.59,7.32-16.65,6.68c0,0,.03-13.26,7.44-21.85,8.54,13.65,9.21,15.17,9.21,15.17Z"/>
            <path class="cls-9" d="M148.58,2694.34c-1.88,2.59-14.95,5.89-15.79,5.16-.84-.74-.57-2.12-.57-2.12,0,0,2.38-16.15,3.8-15.47,1.42.66,14.45,9.83,12.56,12.44Z"/>
            <path class="cls-9" d="M160.35,2678.21c-2.08,2.9-13.27,9.28-15.77,6.12-2.5-3.17-4.3-22.74-4.3-22.74,0,0-.77-3.28,10.49,5.14,11.27,8.42,11.68,8.57,9.59,11.48Z"/>
            <path class="cls-2" d="M167.43,2703.13l-1.85.02s-1.14,2.45-1.16,3.73c-.01.53.49,1.64,1.08,2.74-1.44,2.88-3.75,5.65-7.29,8.03l-5.71-2.95s-1.78,1.35-2.55,1.9c-.57.42,1.25,2.96,2.22,4.22-2.1.86-4.46,1.62-7.13,2.26-2.86.68-5.51,1.09-7.94,1.24-.96-1.92-2.23-4.41-2.23-4.41,0,0-1.19-.79-3-.43-1.04.21-.62,2.69-.09,4.74-4.66-.47-8.39-1.99-11.37-4.07l-.92-4.05-3.09.42c-7.19-8.2-7.72-19.86-7.72-19.86,5.68,7.78,10.37,11.54,17.62,12.93l.94,3.52,4.71-.32.74-2.54c2.08.07,4.37.03,6.89-.1.64,1.56,1.47,3.58,1.58,3.56.18-.05,5.05-1.34,5.05-1.34l.38-2.9c3.03-.66,5.54-1.92,7.61-3.5l.97,2.49s3.83-3.07,3.78-3.76c-.02-.35-.41-1.62-.78-2.78,5.22-6.92,5.89-15.79,5.89-15.79,0,0,4.49,8.13,3.4,17Z"/>
            <path class="cls-14" d="M122.52,2655.74c-.13-.64-.46-1.38-.91-2.19-4.05-6.95-19.09-19-19.09-19,0,0-1.26-2.92,3.81-2.76,4.09.13,18.11,14.22,23.4,19.69,1.28,1.32,2.05,2.14,2.05,2.14l-9.26,2.12Z"/>
            <path class="cls-8" d="M164.04,2686.13s-.67,8.87-5.89,15.79c.37,1.16.77,2.43.78,2.78.05.68-3.78,3.76-3.78,3.76l-.97-2.49c-2.07,1.59-4.59,2.84-7.61,3.5l-.38,2.9s-4.88,1.3-5.05,1.34c-.1.03-.94-1.99-1.58-3.56-2.52.13-4.8.17-6.89.1l-.74,2.54-4.71.32-.94-3.52c-7.25-1.39-11.94-5.15-17.62-12.93,0,0,.53,11.66,7.72,19.86l3.09-.42.92,4.05c2.98,2.09,6.71,3.6,11.37,4.07-.53-2.04-.95-4.53.09-4.74,1.8-.36,3,.43,3,.43,0,0,1.27,2.49,2.23,4.41,2.43-.15,5.07-.56,7.94-1.24,2.67-.64,5.03-1.4,7.13-2.26-.97-1.27-2.79-3.81-2.22-4.22.77-.56,2.55-1.9,2.55-1.9l5.71,2.95c3.54-2.39,5.85-5.16,7.29-8.03-.59-1.1-1.09-2.2-1.08-2.74.02-1.28,1.16-3.73,1.16-3.73l1.85-.02c1.1-8.87-3.4-17-3.4-17Z"/>
            <path class="cls-7" d="M129.73,2651.48c-1.23.41-2.43.87-3.59,1.32-1.47.23-3,.48-4.54.75-18.06,3.2-39.18,10.17-37.7,36.98,1.6,29.1,25.1,61.66,59.15,48.65,0,0,50.52-6.49,39.51-51.55-10.3-42.15-34.96-42.15-52.83-36.16ZM140.27,2661.59s-.77-3.28,10.49,5.14c11.27,8.42,11.68,8.57,9.59,11.48-2.08,2.9-13.27,9.28-15.77,6.12-2.5-3.17-4.3-22.74-4.3-22.74ZM132.22,2697.37s2.38-16.15,3.8-15.47c1.42.66,14.45,9.83,12.56,12.44-1.88,2.59-14.95,5.89-15.79,5.16-.84-.74-.57-2.12-.57-2.12ZM119.02,2669.8c8.54,13.65,9.21,15.17,9.21,15.17,0,0-8.59,7.32-16.65,6.68,0,0,.03-13.26,7.44-21.85ZM167.43,2703.13l-1.85.02s-1.14,2.45-1.16,3.73c-.01.53.49,1.64,1.08,2.74-1.44,2.88-3.75,5.65-7.29,8.03l-5.71-2.95s-1.78,1.35-2.55,1.9c-.57.42,1.25,2.96,2.22,4.22-2.1.86-4.46,1.62-7.13,2.26-2.86.68-5.51,1.09-7.94,1.24-.96-1.92-2.23-4.41-2.23-4.41,0,0-1.19-.79-3-.43-1.04.21-.62,2.69-.09,4.74-4.66-.47-8.39-1.99-11.37-4.07l-.92-4.05-3.09.42c-7.19-8.2-7.72-19.86-7.72-19.86,5.68,7.78,10.37,11.54,17.62,12.93l.94,3.52,4.71-.32.74-2.54c2.08.07,4.37.03,6.89-.1.64,1.56,1.47,3.58,1.58,3.56.18-.05,5.05-1.34,5.05-1.34l.38-2.9c3.03-.66,5.54-1.92,7.61-3.5l.97,2.49s3.83-3.07,3.78-3.76c-.02-.35-.41-1.62-.78-2.78,5.22-6.92,5.89-15.79,5.89-15.79,0,0,4.49,8.13,3.4,17Z"/>
            <path class="cls-9" d="M164.04,2686.13s-.67,8.87-5.89,15.79c.37,1.16.77,2.43.78,2.78.05.68-3.78,3.76-3.78,3.76l-.97-2.49c-2.07,1.59-4.59,2.84-7.61,3.5l-.38,2.9s-4.88,1.3-5.05,1.34c-.1.03-.94-1.99-1.58-3.56-2.52.13-4.8.17-6.89.1l-.74,2.54-4.71.32-.94-3.52c-7.25-1.39-11.94-5.15-17.62-12.93,0,0,.53,11.66,7.72,19.86l3.09-.42.92,4.05c2.98,2.09,6.71,3.6,11.37,4.07-.53-2.04-.95-4.53.09-4.74,1.8-.36,3,.43,3,.43,0,0,1.27,2.49,2.23,4.41,2.43-.15,5.07-.56,7.94-1.24,2.67-.64,5.03-1.4,7.13-2.26-.97-1.27-2.79-3.81-2.22-4.22.77-.56,2.55-1.9,2.55-1.9l5.71,2.95c3.54-2.39,5.85-5.16,7.29-8.03-.59-1.1-1.09-2.2-1.08-2.74.02-1.28,1.16-3.73,1.16-3.73l1.85-.02c1.1-8.87-3.4-17-3.4-17Z"/>
          </g>
          <g>
            <path class="cls-6" d="M1699.08,2693.41c-4.95,18.02-26.82,27.73-48.87,21.68-22.04-6.05-35.9-25.56-30.96-43.58,4.95-18.02,22.67-27.36,44.71-21.31,1.34.37,10.48,2.76,11.75,3.23,19.74,7.16,28.01,23.06,23.36,39.99Z"/>
            <path class="cls-9" d="M1658.7,2669.4l.46,5.89,7.88,3.95,1.89-.71,1.97-5.79s-2.52-4.92-4.27-5.4-7.92,2.06-7.92,2.06Z"/>
            <path class="cls-9" d="M1646.7,2658.1s-1.14,5.53-5.26,6.1c-4.12.57-4.5-1.8-4.5-1.8,0,0,2.8-4.7,3.66-4.75s5.06-1.25,6.1.45Z"/>
            <path class="cls-9" d="M1643.55,2681.95s-.52-3.26,3.7-7.29,2.81.77,2.81.77v8.3s-3.99.42-6.5-1.78Z"/>
            <path class="cls-9" d="M1631.02,2676.15l4.72,6.28-1.02,2.16,1.73,1.57.71-1.57,3.01,2.84-.76,2.76,3.78,2.45,1.27-2.94,2.82.81.94-7.28.79.08s-1.2,10.32.07,10.95,3.77,1.46,3.77,1.46l.75-2.72,3.43,1.04s-1.04,1.89-.9,1.92,7.25.39,7.25.39c0,0-4.06,2.75-8.29,2.72l.03,2.65-3.96-.33-.04-1.9-3.46-1.14-1.37,2.93-4.47-2.26.42-2.9-3.84-1.81-1.1.92-1.93-2.6,1.64-2.19-3.42-1.98-1.25,1.45s-4.66-5.52-1.3-13.75Z"/>
            <path class="cls-14" d="M1664.9,2653.66s14.13-13.67,4.85-21.12l-3.65-.44.29-1.07s9.78-.57,10.66,3.7c.88,4.27,2.12,9.56-4.25,19.35-4.49.89-7.9-.42-7.9-.42Z"/>
          </g>
          <g>
            <path class="cls-5" d="M1368.87,2632.21s21.62-5.18-15.54-20.95c-37.16-15.77,1.46-39.42,20.5-27.7,12.48,7.68,37.16,25.45,42.8,7.21,5.63-18.24,1.35-20.5,1.35-20.5,0,0-1.86,9.33-.79,11.94-6.76-11.04-4.84-14.87-4.84-14.87,0,0-1.8,9.91.68,13.85-8-3.15-6.19-19.15-6.19-19.15,0,0-10.81.34-7.43,10.25-6.31-8.56-3.49-17.23-3.49-17.23,0,0-7.66,8.67-.68,19.15-6.76-9.91-20.65-18.69-15.79-10.7s5.2,8.78,5.2,8.78c0,0-39.02-10.53-12.5-24.72,26.52-14.19,42.57-9.29,35.64-20.44-6.93-11.15-6.76-20.61-6.76-20.61,0,0-15.2-8.95-5.24-21.79,9.97-12.84,33.28-15.2,37.33,8.95,4.05,24.16-.34,23.65,16.39,31.59,16.72,7.94,40.88,28.04,31.93,53.04l-4.56,11.32s2.53-12.5-.51-16.22c0,0-2.65,6.87-4,9.46.11-11.6-2.82-12.61-2.82-12.61,0,0-.45,5.63-1.46,7.77-1.01-6.64-2.82-9.69-2.82-9.69,0,0,.45,6.98.11,8.33-1.58-5.29-7.1-9.57-7.1-9.57,0,0,4.28,18.92-6.76,24.21,2.14-6.87,2.03-22.41-.23-17.46-2.25,4.96-3.83,38.4-27.65,38.74-23.82.34-50.56-27.89-62.79-28.32-13.39-.48-18.98,13.12-4.96,22.58,14.02,9.46,41.44,20.1,12.95,25.34Z"/>
            <path class="cls-4" d="M1421.68,2505.62s-1.58-14.19,1.01-10.14c2.59,4.05,12.28,24.89,5.74,26.58-6.53,1.69-6.76-16.44-6.76-16.44Z"/>
            <path class="cls-4" d="M1407.61,2497.74s4.45-13.68,7.55-12.5,7.43,2.2,2.82,5.97c-4.62,3.77-10.36,6.53-10.36,6.53Z"/>
            <path class="cls-4" d="M1427.93,2492.67c.08,1.16-5.29-3.89-4.73-5.35s1.36-3.43,2.34-3.15,2.28,6.87,2.39,8.5Z"/>
          </g>
        </g>
        <path class="cls-10" d="M385.35,1735.43c-38.59,119.12-161.13,98.82-226.66,27.05-85.29,133.14-216.35,41.6-216.35,41.6l-7.89-79.51c-28.73,1.78-29.15,3.19-29.15,3.19l14.73-148.57,2.55-25.7,7.68-77.45s131.06-91.53,216.36,41.61c65.53-71.77,188.06-92.08,226.65,27.04,60.24-60.18,134.35-10.86,150.88,55.04,56.7,90.01-54.6,219.82-138.8,135.7Z"/>
      </g>
      <path class="cls-10" d="M1994.12,1497.14c5.45-81.24,10.91-162.48,16.37-243.72-21.28-50.89-73.06-82.04-126.64-76.81-57.05,5.57-103.74,51.21-110.96,109.65-47.95-21.36-100.61-15.08-128.12,13.82-37.55,39.44-32.09,125.03,34.47,174.49-11.44-8.02-32.06-19.84-59.99-23.05-41.66-4.8-81.08,11.7-102.21,33-29.84,30.08-38.34,84.97-19.05,141.46,1.17,26.72,9.59,50.35,24.47,67.31,19.79,22.56,58.13,41.43,100.01,39.19,27.98-1.49,49.23-11.97,61.15-19.26,1.22-.8,2.45-1.59,3.71-2.36-1.11.73-2.35,1.52-3.71,2.36-69.34,45.31-79.99,130.33-44.94,171.97,25.7,30.53,77.87,40.01,127.04,21.63,3.64,58.77,47.45,107.17,104.06,116.22,53.15,8.49,106.74-19.44,131.09-68.92-.9-152.26-1.81-304.53-2.71-456.79-1.35-.06-2.69-.12-4.04-.19ZM1682.68,1477.06c-1.1-.77-2.18-1.55-3.24-2.35,1.18.83,2.26,1.62,3.24,2.35Z"/>
      <path class="cls-10" d="M1694.68,1384.06c-1.1-.77-2.18-1.55-3.24-2.35,1.18.83,2.26,1.62,3.24,2.35Z"/>
      <path class="cls-10" d="M1699.33,1617.86c-1.11.73-2.35,1.52-3.71,2.36,1.22-.8,2.45-1.59,3.71-2.36Z"/>
    </g>
  </g>
</svg>